<svg xmlns="http://www.w3.org/2000/svg" width="800" height="360" font-family="sans-serif">
<rect width="100%" height="100%" fill="#fff"/>
<text x="400.0" y="24" text-anchor="middle" font-size="15" font-weight="600">RSS at same 400 Mbps UDP (6fa6a40)</text>
<line x1="56" y1="40" x2="56" y2="290" stroke="#333"/>
<line x1="56" y1="290" x2="776" y2="290" stroke="#333"/>
<line x1="56" y1="290.0" x2="776" y2="290.0" stroke="#eee"/>
<text x="48" y="294.0" text-anchor="end" font-size="11" fill="#555">0</text>
<line x1="56" y1="227.5" x2="776" y2="227.5" stroke="#eee"/>
<text x="48" y="231.5" text-anchor="end" font-size="11" fill="#555">7</text>
<line x1="56" y1="165.0" x2="776" y2="165.0" stroke="#eee"/>
<text x="48" y="169.0" text-anchor="end" font-size="11" fill="#555">13</text>
<line x1="56" y1="102.5" x2="776" y2="102.5" stroke="#eee"/>
<text x="48" y="106.5" text-anchor="end" font-size="11" fill="#555">20</text>
<line x1="56" y1="40.0" x2="776" y2="40.0" stroke="#eee"/>
<text x="48" y="44.0" text-anchor="end" font-size="11" fill="#555">27</text>
<text x="14" y="165.0" text-anchor="middle" font-size="11" fill="#555" transform="rotate(-90 14 165.0)">MB</text>
<rect x="128.0" y="183.7" width="136.5" height="106.3" fill="#2563eb" rx="2"/>
<text x="196.2" y="179.7" text-anchor="middle" font-size="10" fill="#333">11</text>
<rect x="488.0" y="180.8" width="136.5" height="109.2" fill="#2563eb" rx="2"/>
<text x="556.2" y="176.8" text-anchor="middle" font-size="10" fill="#333">12</text>
<rect x="266.5" y="72.6" width="136.5" height="217.4" fill="#f59e0b" rx="2"/>
<text x="334.7" y="68.6" text-anchor="middle" font-size="10" fill="#333">23</text>
<rect x="626.5" y="73.5" width="136.5" height="216.5" fill="#f59e0b" rx="2"/>
<text x="694.7" y="69.5" text-anchor="middle" font-size="10" fill="#333">23</text>
<text x="236.0" y="322" text-anchor="middle" font-size="11">server</text>
<text x="596.0" y="322" text-anchor="middle" font-size="11">client</text>
<rect x="56" y="338" width="12" height="12" fill="#2563eb"/>
<text x="72" y="348" font-size="12">hy 0.2.0</text>
<rect x="146" y="338" width="12" height="12" fill="#f59e0b"/>
<text x="162" y="348" font-size="12">Go v2.8.1</text>
</svg>