<svg xmlns="http://www.w3.org/2000/svg" width="800" height="360" font-family="sans-serif">
<rect width="100%" height="100%" fill="#fff"/>
<text x="400.0" y="24" text-anchor="middle" font-size="15" font-weight="600">UDP rx vs target (f2dec24, TLS+Salamander 1200B)</text>
<line x1="56" y1="40" x2="56" y2="290" stroke="#333"/>
<line x1="56" y1="290" x2="776" y2="290" stroke="#333"/>
<line x1="56" y1="290.0" x2="776" y2="290.0" stroke="#eee"/>
<text x="48" y="294.0" text-anchor="end" font-size="11" fill="#555">0</text>
<line x1="56" y1="227.5" x2="776" y2="227.5" stroke="#eee"/>
<text x="48" y="231.5" text-anchor="end" font-size="11" fill="#555">245</text>
<line x1="56" y1="165.0" x2="776" y2="165.0" stroke="#eee"/>
<text x="48" y="169.0" text-anchor="end" font-size="11" fill="#555">489</text>
<line x1="56" y1="102.5" x2="776" y2="102.5" stroke="#eee"/>
<text x="48" y="106.5" text-anchor="end" font-size="11" fill="#555">734</text>
<line x1="56" y1="40.0" x2="776" y2="40.0" stroke="#eee"/>
<text x="48" y="44.0" text-anchor="end" font-size="11" fill="#555">979</text>
<text x="14" y="165.0" text-anchor="middle" font-size="11" fill="#555" transform="rotate(-90 14 165.0)">Mbps</text>
<rect x="76.6" y="284.9" width="37.6" height="5.1" fill="#2563eb" rx="2"/>
<text x="95.4" y="280.9" text-anchor="middle" font-size="10" fill="#333">20</text>
<rect x="179.4" y="277.2" width="37.6" height="12.8" fill="#2563eb" rx="2"/>
<text x="198.2" y="273.2" text-anchor="middle" font-size="10" fill="#333">50</text>
<rect x="282.3" y="264.5" width="37.6" height="25.5" fill="#2563eb" rx="2"/>
<text x="301.1" y="260.5" text-anchor="middle" font-size="10" fill="#333">100</text>
<rect x="385.1" y="238.8" width="37.6" height="51.2" fill="#2563eb" rx="2"/>
<text x="403.9" y="234.8" text-anchor="middle" font-size="10" fill="#333">200</text>
<rect x="488.0" y="188.2" width="37.6" height="101.8" fill="#2563eb" rx="2"/>
<text x="506.8" y="184.2" text-anchor="middle" font-size="10" fill="#333">398</text>
<rect x="590.9" y="91.6" width="37.6" height="198.4" fill="#2563eb" rx="2"/>
<text x="609.6" y="87.6" text-anchor="middle" font-size="10" fill="#333">777</text>
<rect x="693.7" y="146.9" width="37.6" height="143.1" fill="#2563eb" rx="2"/>
<text x="712.5" y="142.9" text-anchor="middle" font-size="10" fill="#333">560</text>
<rect x="116.1" y="284.9" width="37.6" height="5.1" fill="#f59e0b" rx="2"/>
<text x="134.9" y="280.9" text-anchor="middle" font-size="10" fill="#333">20</text>
<rect x="219.0" y="277.2" width="37.6" height="12.8" fill="#f59e0b" rx="2"/>
<text x="237.8" y="273.2" text-anchor="middle" font-size="10" fill="#333">50</text>
<rect x="321.8" y="264.5" width="37.6" height="25.5" fill="#f59e0b" rx="2"/>
<text x="340.6" y="260.5" text-anchor="middle" font-size="10" fill="#333">100</text>
<rect x="424.7" y="238.8" width="37.6" height="51.2" fill="#f59e0b" rx="2"/>
<text x="443.5" y="234.8" text-anchor="middle" font-size="10" fill="#333">200</text>
<rect x="527.6" y="188.2" width="37.6" height="101.8" fill="#f59e0b" rx="2"/>
<text x="546.3" y="184.2" text-anchor="middle" font-size="10" fill="#333">399</text>
<rect x="630.4" y="87.5" width="37.6" height="202.5" fill="#f59e0b" rx="2"/>
<text x="649.2" y="83.5" text-anchor="middle" font-size="10" fill="#333">793</text>
<rect x="733.3" y="72.6" width="37.6" height="217.4" fill="#f59e0b" rx="2"/>
<text x="752.1" y="68.6" text-anchor="middle" font-size="10" fill="#333">851</text>
<text x="107.4" y="322" text-anchor="middle" font-size="11">20</text>
<text x="210.3" y="322" text-anchor="middle" font-size="11">50</text>
<text x="313.1" y="322" text-anchor="middle" font-size="11">100</text>
<text x="416.0" y="322" text-anchor="middle" font-size="11">200</text>
<text x="518.9" y="322" text-anchor="middle" font-size="11">400</text>
<text x="621.7" y="322" text-anchor="middle" font-size="11">800</text>
<text x="724.6" y="322" text-anchor="middle" font-size="11">max</text>
<rect x="56" y="338" width="12" height="12" fill="#2563eb"/>
<text x="72" y="348" font-size="12">hy</text>
<rect x="146" y="338" width="12" height="12" fill="#f59e0b"/>
<text x="162" y="348" font-size="12">Go</text>
</svg>